PathFileType	4	(X/Y/Z)	E:\Qualisys_Data\Carbon_Farble_Plate\Data\Amateur_Runner\S14\T2\S14T2V24_c3d.trc
DataRate	CameraRate	NumFrames	NumMarkers	Units	OrigDataRate	OrigDataStartFrame	OrigNumFrames
200.000000	200.000000	5	39	mm	200.000000	275	315
Frame#	Time	LSHO			RSHO			LICST			RICST			LASIS			LHEEL			RASIS			LTROC			RTROC			SACR			LTH1			LSK4			LTH2			LTH3			RHM5			LSK2			LTH4			RTH1			LTOE			RTH2			RTH3			RTH4			LLEP			RLEP			LSK1			LSK3			RSK1			LHM5			RSK2			LFT1			RSK3			RSK4			LLME			RLME			RTOE			RHEEL			RFT1			RFT2			LFT2			
		X1	Y1	Z1	X2	Y2	Z2	X3	Y3	Z3	X4	Y4	Z4	X5	Y5	Z5	X6	Y6	Z6	X7	Y7	Z7	X8	Y8	Z8	X9	Y9	Z9	X10	Y10	Z10	X11	Y11	Z11	X12	Y12	Z12	X13	Y13	Z13	X14	Y14	Z14	X15	Y15	Z15	X16	Y16	Z16	X17	Y17	Z17	X18	Y18	Z18	X19	Y19	Z19	X20	Y20	Z20	X21	Y21	Z21	X22	Y22	Z22	X23	Y23	Z23	X24	Y24	Z24	X25	Y25	Z25	X26	Y26	Z26	X27	Y27	Z27	X28	Y28	Z28	X29	Y29	Z29	X30	Y30	Z30	X31	Y31	Z31	X32	Y32	Z32	X33	Y33	Z33	X34	Y34	Z34	X35	Y35	Z35	X36	Y36	Z36	X37	Y37	Z37	X38	Y38	Z38	X39	Y39	Z39	

276	1.375	2682.359619140625	1434.433837890625	-482.3122253417969	2629.21630859375	1427.78173828125	-191.1174926757812	2654.23291015625	989.2813720703124	-477.6116333007812	2652.418212890625	981.8518676757812	-199.1119232177734	2697.5205078125	941.1859130859376	-454.5650939941406	2260.301025390625	239.6340637207031	-422.6969299316406	2686.279052734375	944.2506713867188	-221.6648712158203	2563.091796875	873.7168579101562	-508.8658752441406	2571.78955078125	852.0827026367188	-171.9062042236328	2518.102294921875	977.4845581054688	-352.3644714355469	2622.342041015625	643.2247314453125	-530.289794921875	2401.0458984375	367.8372192382812	-498.8618774414062	2546.377685546875	643.3229370117188	-509.8042297363281	2627.604736328125	544.4669799804688	-520.3836059570312	2792.42822265625	80.50508880615234	-214.59033203125	2469.85205078125	437.4777526855469	-516.808349609375	2550.25927734375	545.0211791992188	-500.5306701660156	2795.595947265625	707.392578125	-184.6533966064453	2390.881591796875	34.80262756347656	-473.0226135253906	2727.227294921875	671.4214477539062	-182.6580352783203	2845.26220703125	625.1862182617188	-215.9945678710938	2772.326904296875	583.9697875976562	-203.3672637939453	2567.053955078125	478.9440612792969	-519.5938720703125	2825.249267578125	535.2828979492188	-207.7625732421875	2528.16650390625	379.8328857421875	-523.1052856445312	2455.32080078125	308.4294128417969	-510.7145080566406	2817.404541015625	409.7114562988281	-211.0169219970703	2323.283447265625	67.15054321289062	-525.5379638671875	2735.02978515625	432.4956665039062	-210.7299652099609	2245.558837890625	214.0200958251953	-396.90478515625	2783.81640625	313.2213745117188	-228.6941223144531	2709.924560546875	340.9239196777344	-226.0483245849609	2304.917724609375	213.9076690673828	-488.3343200683594	2686.310302734375	165.6084289550781	-249.7698669433594	2877.021728515625	76.53308868408203	-271.9918823242188	2629.827880859375	149.4339447021484	-311.7688903808594	2638.64013671875	116.5397872924805	-336.5651550292969	2620.24560546875	124.1629104614258	-284.0199890136719	2230.1455078125	218.7601318359375	-450.0423583984375
277	1.38	2703.88134765625	1437.769653320312	-479.5282592773438	2647.570556640625	1430.3583984375	-189.1168212890625	2675.146484375	991.9859619140624	-476.9092712402344	2676.806884765625	986.2592163085938	-199.0774230957031	2718.202392578125	943.9114379882812	-453.0596618652344	2273.54736328125	246.5798187255859	-425.6493835449219	2708.300048828125	948.4170532226562	-218.999267578125	2583.375244140625	876.9570922851562	-508.05322265625	2592.9580078125	855.7589111328125	-171.3372802734375	2539.135986328125	979.5161743164062	-351.9366760253906	2638.6845703125	645.8223876953125	-530.3611450195312	2413.0224609375	372.8829956054688	-499.9918823242188	2562.34375	646.8986206054688	-509.9520263671875	2642.46044921875	546.7938232421875	-520.5083618164062	2837.367919921875	79.00259399414062	-215.3241424560547	2482.577392578125	441.8106079101562	-517.8466186523438	2564.77099609375	548.5039672851562	-501.5978088378906	2816.0693359375	709.9952392578125	-185.2019348144531	2394.565185546875	33.98494720458984	-472.9664611816406	2747.7080078125	673.8333740234375	-182.2668151855469	2865.080810546875	628.163330078125	-215.7854614257812	2793.65380859375	585.9292602539062	-203.9483489990234	2580.343505859375	483.1971740722656	-519.9242553710938	2846.249267578125	536.85302734375	-208.2275085449219	2540.472412109375	383.8556213378906	-524.3126831054688	2467.166015625	313.1487121582031	-512.3015747070312	2844.089599609375	410.6183776855469	-211.2510681152344	2329.1220703125	70.21622467041016	-526.3670043945312	2760.5322265625	428.6915893554688	-209.8260192871094	2257.990966796875	222.7014923095703	-400.5438232421875	2815.210693359375	312.907958984375	-227.9874572753906	2739.880859375	335.9724426269531	-225.0906829833984	2316.234619140625	218.362060546875	-491.1142272949219	2728.01806640625	158.8536834716797	-251.0014343261719	2921.715576171875	80.71212005615234	-272.2275085449219	2670.564697265625	141.6604156494141	-310.8876342773438	2682.112548828125	107.4404067993164	-337.0631408691406	2662.284912109375	113.9920654296875	-284.2982177734375	2243.14599609375	227.6707305908203	-453.7430725097656
278	1.385	2724.964599609375	1440.449584960938	-476.9927062988281	2665.0439453125	1432.854248046875	-187.7523803710938	2695.92236328125	994.1063232421876	-475.9657897949219	2700.8798828125	990.1054077148438	-198.9864349365234	2738.8544921875	946.0828247070312	-451.7612915039062	2287.864013671875	253.9151763916016	-428.9888305664062	2730.434326171875	952.5009155273438	-218.5352325439453	2602.978515625	879.3909301757812	-507.1055908203125	2613.9287109375	859.097900390625	-170.8065032958984	2559.388671875	982.097900390625	-351.2354736328125	2654.707275390625	648.4059448242188	-530.2832641601562	2425.663818359375	377.5387573242188	-501.6196594238281	2579.111328125	650.8956909179688	-509.6996154785156	2657.117431640625	549.5342407226562	-520.7137451171875	2882.279541015625	78.4853515625	-215.9490814208984	2495.515380859375	446.899658203125	-518.2091064453125	2579.780517578125	552.087890625	-502.1183166503906	2836.709228515625	711.9408569335938	-185.0508270263672	2398.317138671875	32.98635482788086	-472.8105773925781	2767.6748046875	676.0285034179688	-181.2504272460938	2885.6171875	629.983154296875	-215.6623840332031	2813.6376953125	588.4208374023438	-202.7013244628906	2593.8447265625	486.7799987792969	-520.0074462890625	2866.614990234375	537.940673828125	-208.2828369140625	2553.29443359375	387.6528625488281	-525.0716552734375	2479.16943359375	317.7172241210938	-514.39697265625	2869.721923828125	411.6971435546875	-210.4158172607422	2335.64404296875	73.39942169189453	-527.496826171875	2785.386962890625	424.8025207519531	-208.6747131347656	2270.8427734375	231.3635864257812	-403.5715026855469	2846.126220703125	312.1159973144531	-227.8656768798828	2769.95654296875	331.2191772460938	-224.7017517089844	2328.451171875	223.1073150634766	-494.4309692382812	2768.505859375	152.4936218261719	-251.5089263916016	2966.488037109375	85.93350982666016	-272.5326538085938	2712.032470703125	132.0710754394531	-311.3441772460938	2725.45703125	99.6667022705078	-338.09912109375	2707.04052734375	103.9224090576172	-285.7034301757812	2256.275390625	236.3457794189453	-457.7070617675781
279	1.39	2745.766357421875	1443.09912109375	-474.0735778808594	2683.401611328125	1434.801025390625	-186.6047210693359	2716.933837890625	996.630126953125	-475.1686706542969	2719.030029296875	992.4837036132812	-197.6192932128906	2759.340576171875	948.3261108398438	-450.8756408691406	2302.094482421875	260.7666015625	-432.6004638671875	2751.020263671875	954.4979858398438	-217.146484375	2622.9990234375	882.0974731445312	-506.3455200195312	2634.878662109375	861.7288818359375	-170.7359466552734	2580.603759765625	984.15283203125	-350.6745910644531	2671.55810546875	650.639892578125	-530.0802612304688	2438.49267578125	382.4240417480469	-502.8116760253906	2595.261474609375	654.743408203125	-509.2527770996094	2672.113525390625	552.3998413085938	-520.6179809570312	2926.1123046875	78.23085021972656	-216.6749114990234	2509.10595703125	450.6868591308594	-518.6784057617188	2594.95556640625	556.1499633789062	-501.7496948242188	2857.415283203125	713.3072509765625	-185.1098480224609	2402.50244140625	31.94853019714355	-472.6986083984375	2788.15673828125	678.041015625	-180.1116333007812	2906.201904296875	630.3226928710938	-215.1911773681641	2832.6533203125	590.0299072265625	-201.6055755615234	2608.364013671875	490.4564208984375	-519.9625244140625	2886.017578125	538.3356323242188	-207.2873077392578	2566.07373046875	391.5710754394531	-526.1878051757812	2491.999755859375	321.8960571289062	-516.1632080078125	2895.2080078125	411.7935485839844	-209.4453582763672	2342.432373046875	76.59365844726562	-528.1329345703125	2809.983642578125	420.8720703125	-207.5965576171875	2284.004150390625	238.9607086181641	-407.2502136230469	2876.248046875	311.8336791992188	-225.438232421875	2800.14501953125	326.1865234375	-225.0729675292969	2340.431396484375	227.6643371582031	-497.6153869628906	2808.2822265625	147.2010192871094	-251.8399658203125	3009.718505859375	91.56307220458984	-271.9278564453125	2753.502197265625	124.0293807983398	-312.0711975097656	2770.26708984375	92.93614196777344	-340.5436706542969	2749.895263671875	94.4721450805664	-286.7637634277344	2270.169677734375	244.3754730224609	-461.2107238769531
280	1.395	2766.996826171875	1446.023559570312	-471.8349609375	2701.70947265625	1436.234130859375	-185.3105010986328	2737.54736328125	998.8035888671876	-474.2468872070312	2738.423095703125	994.5613403320312	-196.0993957519531	2780.300537109375	950.3779907226562	-450.3946838378906	2316.95263671875	266.9902954101562	-436.083740234375	2772.05224609375	957.177001953125	-216.6121215820312	2642.358642578125	884.6976928710938	-505.6471252441406	2655.6044921875	864.1253051757812	-170.5121307373047	2601.92236328125	985.59130859375	-350.5355529785156	2688.90673828125	653.4158325195312	-529.9458618164062	2452.29638671875	386.6268615722656	-504.7177124023438	2612.4892578125	658.1945190429688	-508.9456481933594	2687.417236328125	554.2900390625	-520.3369140625	2969.036376953125	79.24906158447266	-216.52294921875	2523.16845703125	455.1652221679688	-518.7445068359375	2610.14892578125	559.5767822265625	-501.7744445800781	2877.5927734375	714.2504272460938	-185.0491790771484	2406.478515625	30.48027610778809	-472.2733764648438	2808.631591796875	679.2202758789062	-180.4814147949219	2926.277099609375	630.804443359375	-214.5385589599609	2853.108642578125	590.3177490234375	-201.6475982666016	2622.963623046875	493.7048034667969	-520.05908203125	2905.850830078125	538.9490966796875	-206.7393798828125	2580.09814453125	395.7674865722656	-526.0405883789062	2505.361328125	325.9035339355469	-517.6134643554688	2920.229248046875	411.977294921875	-208.2981872558594	2348.22265625	79.89624786376953	-529.1841430664062	2834.94775390625	416.44189453125	-207.0634460449219	2297.6279296875	246.0523986816406	-411.22314453125	2907.176513671875	310.1162109375	-226.0202026367188	2829.7705078125	321.3734436035156	-224.1847686767578	2354.08349609375	232.6222534179688	-500.7593688964844	2847.38232421875	142.1995697021484	-251.1471557617188	3052.622802734375	98.24092864990234	-271.5499877929688	2791.215576171875	113.2303771972656	-311.7197875976562	2812.44775390625	86.77127838134766	-340.3976440429688	2793.07958984375	86.39872741699219	-287.1168823242188	2284.424072265625	251.9630889892578	-464.6793518066406
